<mxfile host="app.diagrams.net" agent="Mozilla/5.0 (Windows NT 10.0; Win64; x64) AppleWebKit/537.36 (KHTML, like Gecko) Chrome/129.0.0.0 Safari/537.36 Edg/129.0.0.0" version="24.8.2">
  <diagram name="第 1 页" id="P7PwudDH09GZNZB_irqN">
    <mxGraphModel dx="1042" dy="565" grid="1" gridSize="10" guides="1" tooltips="1" connect="1" arrows="1" fold="1" page="1" pageScale="1" pageWidth="827" pageHeight="1169" math="0" shadow="0">
      <root>
        <mxCell id="0" />
        <mxCell id="1" parent="0" />
        <mxCell id="yCNENucEjBEoRtRZ8s-7-2" style="edgeStyle=orthogonalEdgeStyle;rounded=0;orthogonalLoop=1;jettySize=auto;html=1;entryX=0.5;entryY=0;entryDx=0;entryDy=0;" edge="1" parent="1" source="yCNENucEjBEoRtRZ8s-7-1" target="yCNENucEjBEoRtRZ8s-7-4">
          <mxGeometry relative="1" as="geometry">
            <mxPoint x="420" y="260" as="targetPoint" />
            <Array as="points">
              <mxPoint x="400" y="290" />
            </Array>
          </mxGeometry>
        </mxCell>
        <mxCell id="yCNENucEjBEoRtRZ8s-7-1" value="程序运行" style="rounded=1;whiteSpace=wrap;html=1;" vertex="1" parent="1">
          <mxGeometry x="340" y="180" width="120" height="50" as="geometry" />
        </mxCell>
        <mxCell id="yCNENucEjBEoRtRZ8s-7-24" style="edgeStyle=orthogonalEdgeStyle;rounded=0;orthogonalLoop=1;jettySize=auto;html=1;" edge="1" parent="1" source="yCNENucEjBEoRtRZ8s-7-4">
          <mxGeometry relative="1" as="geometry">
            <mxPoint x="280" y="370" as="targetPoint" />
          </mxGeometry>
        </mxCell>
        <mxCell id="yCNENucEjBEoRtRZ8s-7-25" style="edgeStyle=orthogonalEdgeStyle;rounded=0;orthogonalLoop=1;jettySize=auto;html=1;exitX=1;exitY=0.5;exitDx=0;exitDy=0;entryX=0.5;entryY=0;entryDx=0;entryDy=0;" edge="1" parent="1" source="yCNENucEjBEoRtRZ8s-7-4" target="yCNENucEjBEoRtRZ8s-7-7">
          <mxGeometry relative="1" as="geometry" />
        </mxCell>
        <mxCell id="yCNENucEjBEoRtRZ8s-7-4" value="用户是否输入有效n1, n2" style="rhombus;whiteSpace=wrap;html=1;" vertex="1" parent="1">
          <mxGeometry x="340" y="280" width="115" height="80" as="geometry" />
        </mxCell>
        <mxCell id="yCNENucEjBEoRtRZ8s-7-46" style="edgeStyle=orthogonalEdgeStyle;rounded=0;orthogonalLoop=1;jettySize=auto;html=1;exitX=0.5;exitY=1;exitDx=0;exitDy=0;entryX=0.5;entryY=0;entryDx=0;entryDy=0;" edge="1" parent="1" source="yCNENucEjBEoRtRZ8s-7-7" target="yCNENucEjBEoRtRZ8s-7-10">
          <mxGeometry relative="1" as="geometry">
            <Array as="points">
              <mxPoint x="500" y="470" />
              <mxPoint x="405" y="470" />
            </Array>
          </mxGeometry>
        </mxCell>
        <mxCell id="yCNENucEjBEoRtRZ8s-7-7" value="默认n1 = 1.4&lt;br&gt;n2 = 1" style="rounded=0;whiteSpace=wrap;html=1;" vertex="1" parent="1">
          <mxGeometry x="440" y="380" width="120" height="60" as="geometry" />
        </mxCell>
        <mxCell id="yCNENucEjBEoRtRZ8s-7-45" style="edgeStyle=orthogonalEdgeStyle;rounded=0;orthogonalLoop=1;jettySize=auto;html=1;exitX=0.5;exitY=1;exitDx=0;exitDy=0;entryX=0.5;entryY=0;entryDx=0;entryDy=0;" edge="1" parent="1" source="yCNENucEjBEoRtRZ8s-7-8" target="yCNENucEjBEoRtRZ8s-7-10">
          <mxGeometry relative="1" as="geometry">
            <Array as="points">
              <mxPoint x="285" y="470" />
              <mxPoint x="405" y="470" />
            </Array>
          </mxGeometry>
        </mxCell>
        <mxCell id="yCNENucEjBEoRtRZ8s-7-8" value="以用户输入为准" style="rounded=0;whiteSpace=wrap;html=1;" vertex="1" parent="1">
          <mxGeometry x="225" y="370" width="120" height="60" as="geometry" />
        </mxCell>
        <mxCell id="yCNENucEjBEoRtRZ8s-7-28" style="edgeStyle=orthogonalEdgeStyle;rounded=0;orthogonalLoop=1;jettySize=auto;html=1;entryX=0.5;entryY=0;entryDx=0;entryDy=0;" edge="1" parent="1" source="yCNENucEjBEoRtRZ8s-7-10" target="yCNENucEjBEoRtRZ8s-7-11">
          <mxGeometry relative="1" as="geometry" />
        </mxCell>
        <mxCell id="yCNENucEjBEoRtRZ8s-7-29" style="edgeStyle=orthogonalEdgeStyle;rounded=0;orthogonalLoop=1;jettySize=auto;html=1;entryX=0.5;entryY=0;entryDx=0;entryDy=0;exitX=1;exitY=0.5;exitDx=0;exitDy=0;" edge="1" parent="1" source="yCNENucEjBEoRtRZ8s-7-10" target="yCNENucEjBEoRtRZ8s-7-12">
          <mxGeometry relative="1" as="geometry" />
        </mxCell>
        <mxCell id="yCNENucEjBEoRtRZ8s-7-10" value="用户是否输入&lt;div&gt;有效波长wavelength&lt;/div&gt;" style="rhombus;whiteSpace=wrap;html=1;" vertex="1" parent="1">
          <mxGeometry x="350" y="520" width="110" height="80" as="geometry" />
        </mxCell>
        <mxCell id="yCNENucEjBEoRtRZ8s-7-30" style="edgeStyle=orthogonalEdgeStyle;rounded=0;orthogonalLoop=1;jettySize=auto;html=1;entryX=0.5;entryY=0;entryDx=0;entryDy=0;" edge="1" parent="1" source="yCNENucEjBEoRtRZ8s-7-11" target="yCNENucEjBEoRtRZ8s-7-13">
          <mxGeometry relative="1" as="geometry">
            <Array as="points">
              <mxPoint x="285" y="680" />
              <mxPoint x="400" y="680" />
            </Array>
          </mxGeometry>
        </mxCell>
        <mxCell id="yCNENucEjBEoRtRZ8s-7-11" value="以用户输入为准" style="rounded=0;whiteSpace=wrap;html=1;" vertex="1" parent="1">
          <mxGeometry x="225" y="625" width="120" height="60" as="geometry" />
        </mxCell>
        <mxCell id="yCNENucEjBEoRtRZ8s-7-31" style="edgeStyle=orthogonalEdgeStyle;rounded=0;orthogonalLoop=1;jettySize=auto;html=1;" edge="1" parent="1" source="yCNENucEjBEoRtRZ8s-7-12" target="yCNENucEjBEoRtRZ8s-7-13">
          <mxGeometry relative="1" as="geometry">
            <Array as="points">
              <mxPoint x="500" y="680" />
              <mxPoint x="400" y="680" />
            </Array>
          </mxGeometry>
        </mxCell>
        <mxCell id="yCNENucEjBEoRtRZ8s-7-12" value="默认wavelength=4x10^-7m" style="rounded=0;whiteSpace=wrap;html=1;" vertex="1" parent="1">
          <mxGeometry x="440" y="630" width="120" height="60" as="geometry" />
        </mxCell>
        <mxCell id="yCNENucEjBEoRtRZ8s-7-32" style="edgeStyle=orthogonalEdgeStyle;rounded=0;orthogonalLoop=1;jettySize=auto;html=1;entryX=0.5;entryY=0;entryDx=0;entryDy=0;" edge="1" parent="1" source="yCNENucEjBEoRtRZ8s-7-13" target="yCNENucEjBEoRtRZ8s-7-14">
          <mxGeometry relative="1" as="geometry" />
        </mxCell>
        <mxCell id="yCNENucEjBEoRtRZ8s-7-33" style="edgeStyle=orthogonalEdgeStyle;rounded=0;orthogonalLoop=1;jettySize=auto;html=1;exitX=1;exitY=0.5;exitDx=0;exitDy=0;entryX=0.5;entryY=0;entryDx=0;entryDy=0;" edge="1" parent="1" source="yCNENucEjBEoRtRZ8s-7-13" target="yCNENucEjBEoRtRZ8s-7-15">
          <mxGeometry relative="1" as="geometry" />
        </mxCell>
        <mxCell id="yCNENucEjBEoRtRZ8s-7-13" value="用户是否指定光源类型" style="rhombus;whiteSpace=wrap;html=1;" vertex="1" parent="1">
          <mxGeometry x="345" y="760" width="110" height="80" as="geometry" />
        </mxCell>
        <mxCell id="yCNENucEjBEoRtRZ8s-7-34" style="edgeStyle=orthogonalEdgeStyle;rounded=0;orthogonalLoop=1;jettySize=auto;html=1;exitX=0.5;exitY=1;exitDx=0;exitDy=0;" edge="1" parent="1" source="yCNENucEjBEoRtRZ8s-7-14" target="yCNENucEjBEoRtRZ8s-7-16">
          <mxGeometry relative="1" as="geometry" />
        </mxCell>
        <mxCell id="yCNENucEjBEoRtRZ8s-7-14" value="以用户输入为准" style="rounded=0;whiteSpace=wrap;html=1;" vertex="1" parent="1">
          <mxGeometry x="220" y="850" width="120" height="60" as="geometry" />
        </mxCell>
        <mxCell id="yCNENucEjBEoRtRZ8s-7-35" style="edgeStyle=orthogonalEdgeStyle;rounded=0;orthogonalLoop=1;jettySize=auto;html=1;exitX=0.5;exitY=1;exitDx=0;exitDy=0;" edge="1" parent="1" source="yCNENucEjBEoRtRZ8s-7-15" target="yCNENucEjBEoRtRZ8s-7-16">
          <mxGeometry relative="1" as="geometry">
            <Array as="points">
              <mxPoint x="515" y="930" />
              <mxPoint x="400" y="930" />
            </Array>
          </mxGeometry>
        </mxCell>
        <mxCell id="yCNENucEjBEoRtRZ8s-7-15" value="默认光源为点光源" style="rounded=0;whiteSpace=wrap;html=1;" vertex="1" parent="1">
          <mxGeometry x="455" y="860" width="120" height="60" as="geometry" />
        </mxCell>
        <mxCell id="yCNENucEjBEoRtRZ8s-7-36" style="edgeStyle=orthogonalEdgeStyle;rounded=0;orthogonalLoop=1;jettySize=auto;html=1;exitX=1;exitY=0.5;exitDx=0;exitDy=0;" edge="1" parent="1" source="yCNENucEjBEoRtRZ8s-7-16" target="yCNENucEjBEoRtRZ8s-7-18">
          <mxGeometry relative="1" as="geometry" />
        </mxCell>
        <mxCell id="yCNENucEjBEoRtRZ8s-7-37" style="edgeStyle=orthogonalEdgeStyle;rounded=0;orthogonalLoop=1;jettySize=auto;html=1;exitX=0;exitY=0.5;exitDx=0;exitDy=0;entryX=0.5;entryY=0;entryDx=0;entryDy=0;" edge="1" parent="1" source="yCNENucEjBEoRtRZ8s-7-16" target="yCNENucEjBEoRtRZ8s-7-17">
          <mxGeometry relative="1" as="geometry" />
        </mxCell>
        <mxCell id="yCNENucEjBEoRtRZ8s-7-16" value="用户是否指定其他参数" style="rhombus;whiteSpace=wrap;html=1;" vertex="1" parent="1">
          <mxGeometry x="345" y="950" width="110" height="80" as="geometry" />
        </mxCell>
        <mxCell id="yCNENucEjBEoRtRZ8s-7-38" style="edgeStyle=orthogonalEdgeStyle;rounded=0;orthogonalLoop=1;jettySize=auto;html=1;exitX=0.5;exitY=1;exitDx=0;exitDy=0;entryX=0.5;entryY=0;entryDx=0;entryDy=0;" edge="1" parent="1" source="yCNENucEjBEoRtRZ8s-7-17" target="yCNENucEjBEoRtRZ8s-7-19">
          <mxGeometry relative="1" as="geometry">
            <Array as="points">
              <mxPoint x="280" y="1120" />
              <mxPoint x="398" y="1120" />
            </Array>
          </mxGeometry>
        </mxCell>
        <mxCell id="yCNENucEjBEoRtRZ8s-7-17" value="以用户输入为准" style="rounded=0;whiteSpace=wrap;html=1;" vertex="1" parent="1">
          <mxGeometry x="220" y="1040" width="120" height="60" as="geometry" />
        </mxCell>
        <mxCell id="yCNENucEjBEoRtRZ8s-7-39" style="edgeStyle=orthogonalEdgeStyle;rounded=0;orthogonalLoop=1;jettySize=auto;html=1;exitX=0.5;exitY=1;exitDx=0;exitDy=0;entryX=0.5;entryY=0;entryDx=0;entryDy=0;" edge="1" parent="1" source="yCNENucEjBEoRtRZ8s-7-18" target="yCNENucEjBEoRtRZ8s-7-19">
          <mxGeometry relative="1" as="geometry">
            <Array as="points">
              <mxPoint x="515" y="1120" />
              <mxPoint x="398" y="1120" />
            </Array>
          </mxGeometry>
        </mxCell>
        <mxCell id="yCNENucEjBEoRtRZ8s-7-18" value="使用默认参数" style="rounded=0;whiteSpace=wrap;html=1;" vertex="1" parent="1">
          <mxGeometry x="455" y="1040" width="120" height="60" as="geometry" />
        </mxCell>
        <mxCell id="yCNENucEjBEoRtRZ8s-7-40" style="edgeStyle=orthogonalEdgeStyle;rounded=0;orthogonalLoop=1;jettySize=auto;html=1;entryX=0.5;entryY=0;entryDx=0;entryDy=0;" edge="1" parent="1" source="yCNENucEjBEoRtRZ8s-7-19" target="yCNENucEjBEoRtRZ8s-7-20">
          <mxGeometry relative="1" as="geometry" />
        </mxCell>
        <mxCell id="yCNENucEjBEoRtRZ8s-7-41" style="edgeStyle=orthogonalEdgeStyle;rounded=0;orthogonalLoop=1;jettySize=auto;html=1;exitX=1;exitY=0.5;exitDx=0;exitDy=0;entryX=0.5;entryY=0;entryDx=0;entryDy=0;" edge="1" parent="1" source="yCNENucEjBEoRtRZ8s-7-19" target="yCNENucEjBEoRtRZ8s-7-21">
          <mxGeometry relative="1" as="geometry" />
        </mxCell>
        <mxCell id="yCNENucEjBEoRtRZ8s-7-19" value="是否导出视频" style="rhombus;whiteSpace=wrap;html=1;" vertex="1" parent="1">
          <mxGeometry x="342.5" y="1160" width="110" height="80" as="geometry" />
        </mxCell>
        <mxCell id="yCNENucEjBEoRtRZ8s-7-44" style="edgeStyle=orthogonalEdgeStyle;rounded=0;orthogonalLoop=1;jettySize=auto;html=1;exitX=0.5;exitY=1;exitDx=0;exitDy=0;" edge="1" parent="1" source="yCNENucEjBEoRtRZ8s-7-20" target="yCNENucEjBEoRtRZ8s-7-22">
          <mxGeometry relative="1" as="geometry" />
        </mxCell>
        <mxCell id="yCNENucEjBEoRtRZ8s-7-20" value="导出视频至本目录下" style="rounded=0;whiteSpace=wrap;html=1;" vertex="1" parent="1">
          <mxGeometry x="220" y="1250" width="120" height="60" as="geometry" />
        </mxCell>
        <mxCell id="yCNENucEjBEoRtRZ8s-7-42" style="edgeStyle=orthogonalEdgeStyle;rounded=0;orthogonalLoop=1;jettySize=auto;html=1;exitX=0.5;exitY=1;exitDx=0;exitDy=0;" edge="1" parent="1" source="yCNENucEjBEoRtRZ8s-7-21" target="yCNENucEjBEoRtRZ8s-7-22">
          <mxGeometry relative="1" as="geometry">
            <Array as="points">
              <mxPoint x="520" y="1340" />
              <mxPoint x="400" y="1340" />
            </Array>
          </mxGeometry>
        </mxCell>
        <mxCell id="yCNENucEjBEoRtRZ8s-7-21" value="不生成视频， 只演示动画" style="rounded=0;whiteSpace=wrap;html=1;" vertex="1" parent="1">
          <mxGeometry x="460" y="1250" width="120" height="60" as="geometry" />
        </mxCell>
        <mxCell id="yCNENucEjBEoRtRZ8s-7-22" value="程序结束" style="rounded=1;whiteSpace=wrap;html=1;" vertex="1" parent="1">
          <mxGeometry x="340" y="1370" width="120" height="60" as="geometry" />
        </mxCell>
      </root>
    </mxGraphModel>
  </diagram>
</mxfile>
